<?xml version="1.0" encoding="UTF-8"?>
<svg width="26px" height="16px" viewBox="0 0 26 16" version="1.1" xmlns="http://www.w3.org/2000/svg" xmlns:xlink="http://www.w3.org/1999/xlink">
    <title>Shape</title>
    <g id="Page-1" stroke="none" stroke-width="1" fill="none" fill-rule="evenodd">
        <g id="A---3" transform="translate(-124, -650)" fill="#414F5E" fill-rule="nonzero">
            <g id="Group-Copy-4" transform="translate(104, 626)">
                <path d="M34.5130469,39.6504309 C34.1197522,39.8749248 33.5314354,40 33.0016252,40 C32.471815,40 31.8834982,39.8749248 31.4902035,39.6504309 L20.8614962,33.5955101 C20.0359024,33.12728 19.7563707,32.084987 20.2309246,31.2736019 C20.7054785,30.4590098 21.7618485,30.183203 22.5841919,30.6514332 L28.2918402,33.9033875 L24.9992162,28.271798 C24.5246623,27.4572059 24.8074444,26.4181199 25.6297878,25.9498898 C26.4553816,25.4816597 27.5085012,25.7574664 27.9830551,26.5720585 L31.2789295,32.203648 L31.2789295,25.6997394 C31.2789295,24.7600722 32.049267,24 33.0016252,24 C33.9539834,24 34.7243209,24.7600722 34.7243209,25.6997394 L34.7243209,32.203648 L38.0201952,26.5720585 C38.4947491,25.7574664 39.5511191,25.4816597 40.3734625,25.9498898 C41.1990563,26.4181199 41.4785881,27.4604129 41.0040342,28.271798 L37.7081598,33.9033875 L43.4158081,30.6514332 C44.2414019,30.183203 45.2945215,30.4590098 45.7690754,31.2736019 C46.2436293,32.088194 45.9640976,33.12728 45.1385038,33.5955101 L34.5130469,39.6504309 Z" id="Shape"></path>
            </g>
        </g>
    </g>
</svg>